<?xml version="1.0" encoding="UTF-8"?>
<svg id="Carol_Lab_a" data-name="Carol Lab_a" xmlns="http://www.w3.org/2000/svg" viewBox="0 0 1190.5512 1190.5512">
  <defs>
    <style>
      .cls-1 {
        fill: #243640;
      }

      .cls-1, .cls-2 {
        stroke-width: 0px;
      }

      .cls-2 {
        fill: #dcaa3c;
      }
    </style>
  </defs>
  <circle class="cls-1" cx="595.2756" cy="595.2756" r="453.5432"/>
  <path class="cls-2" d="m846.9364,759.0426h-277.9372c-2.0648-.0046-3.7364-1.6734-3.7512-3.7378v-.0236c-.004-86.1522-70.0948-156.242-156.2452-156.242-2.08,0-3.7636-1.685-3.7636-3.7628s1.6836-3.7632,3.7636-3.7632c86.1504,0,156.2412-70.091,156.2412-156.2432,0-2.0752,1.6788-3.7568,3.7552-3.7616h277.9412c1.4092,0,2.7108-.7514,3.416-1.972.7052-1.2212.7052-2.7238,0-3.944l-59.1464-102.4434c-4.0508-7.016-11.5372-11.338-19.6388-11.338h-301.1316c-8.1028,0-15.5892,4.322-19.6396,11.339l-150.5664,260.7866c-4.052,7.0164-4.052,15.6614-.0012,22.6778l150.5676,260.7874c4.0504,7.0162,11.5368,11.3384,19.6396,11.3384h301.1316c8.1016,0,15.588-4.3226,19.6388-11.339l59.1424-102.4424c.7052-1.2206.7052-2.7228,0-3.944-.7048-1.2212-2.0068-1.9722-3.416-1.9722Z"/>
</svg>