<?xml version="1.0" encoding="UTF-8"?>
<svg id="Carol_Lab_b" data-name="Carol Lab_b" xmlns="http://www.w3.org/2000/svg" viewBox="0 0 2381.1024 1190.5512">
  <defs>
    <style>
      .cls-1 {
        fill: #243640;
      }

      .cls-1, .cls-2 {
        stroke-width: 0px;
      }

      .cls-2 {
        fill: #d3d7d9;
      }
    </style>
  </defs>
  <circle class="cls-1" cx="413.2081" cy="595.2756" r="226.7716"/>
  <path class="cls-2" d="m539.0385,677.1591h-138.9686c-1.0324-.0023-1.8682-.8367-1.8756-1.8689v-.0118c-.002-43.0761-35.0474-78.121-78.1226-78.121-1.04,0-1.8818-.8425-1.8818-1.8814s.8418-1.8816,1.8818-1.8816c43.0752,0,78.1206-35.0455,78.1206-78.1216,0-1.0376.8394-1.8784,1.8776-1.8808h138.9706c.7046,0,1.3554-.3757,1.708-.986.3526-.6106.3526-1.3619,0-1.972l-29.5732-51.2217c-2.0254-3.508-5.7686-5.669-9.8194-5.669h-150.5658c-4.0514,0-7.7946,2.161-9.8198,5.6695l-75.2832,130.3933c-2.026,3.5082-2.026,7.8307-.0006,11.3389l75.2838,130.3937c2.0252,3.5081,5.7684,5.6692,9.8198,5.6692h150.5658c4.0508,0,7.794-2.1613,9.8194-5.6695l29.5712-51.2212c.3526-.6103.3526-1.3614,0-1.972-.3524-.6106-1.0034-.9861-1.708-.9861Z"/>
  <path class="cls-2" d="m917.3962,708.6614h-106.1058c-2.4684,0-4.7186-1.414-5.7895-3.638l-51.4993-106.9599c-.8481-1.7616-.8481-3.8135,0-5.5752l51.4993-106.9604c1.0709-2.2241,3.3211-3.6381,5.7895-3.6381h106.1058c2.4684,0,4.7186,1.414,5.7895,3.638l35.316,73.347c1.5396,3.1975.1956,7.0376-3.0018,8.5771l-19.0575,9.1759c-3.1974,1.5395-7.0376.1955-8.5771-3.002l-26.0463-54.0956c-1.0708-2.224-3.321-3.638-5.7894-3.638h-63.3725c-2.4685,0-4.7188,1.414-5.7895,3.6381l-35.1269,72.9581c-.8481,1.7616-.8481,3.8134,0,5.5749l35.1269,72.9576c1.0707,2.2241,3.321,3.6381,5.7895,3.6381h63.3725c2.4684,0,4.7186-1.414,5.7894-3.638l26.0463-54.0956c1.5395-3.1974,5.3797-4.5415,8.5771-3.0019l19.0575,9.1758c3.1974,1.5395,4.5414,5.3796,3.0018,8.5771l-35.316,73.347c-1.0709,2.2241-3.3211,3.638-5.7895,3.638Z"/>
  <path class="cls-2" d="m1309.0076,546.1462h-92.9708c-2.0225,0-3.9268.9522-5.1405,2.5703l-11.1255,14.8335v-10.9781c0-3.5488-2.8767-6.4257-6.4255-6.4257h-21.1511c-3.5488,0-6.4258,2.8769-6.4258,6.4257v149.6639c0,3.5488,2.877,6.4256,6.4258,6.4256h21.1511c3.5488,0,6.4255-2.8768,6.4255-6.4256v-82.0157l28.1267-37.5012c1.2137-1.6181,3.118-2.5703,5.1405-2.5703h75.9696c3.5488,0,6.4255-2.8769,6.4255-6.4256v-21.1511c0-3.5488-2.8767-6.4257-6.4255-6.4257Z"/>
  <rect class="cls-2" x="1525.605" y="481.8898" width="34.0024" height="226.7716" rx="6.4256" ry="6.4256"/>
  <path class="cls-2" d="m1861.6128,708.6614h-136.8123c-3.5488,0-6.4256-2.8768-6.4256-6.4256v-213.9204c0-3.5488,2.8768-6.4256,6.4256-6.4256h21.1511c3.5487,0,6.4257,2.8768,6.4257,6.4256v179.918c0,3.5488,2.8768,6.4256,6.4256,6.4256h102.8099c3.5488,0,6.4256,2.8769,6.4256,6.4257v21.1511c0,3.5488-2.8768,6.4256-6.4256,6.4256Z"/>
  <path class="cls-2" d="m1129.0894,546.1451h-136.8134c-3.5488,0-6.4256,2.8768-6.4256,6.4257v21.151c0,3.5489,2.8768,6.4257,6.4256,6.4257h102.811c3.5488,0,6.4257,2.8768,6.4257,6.4256v10.9781c0,3.5488-2.8769,6.4256-6.4257,6.4256h-102.811c-3.5488,0-6.4256,2.8768-6.4256,6.4257v91.8322c0,3.5488,2.8768,6.4256,6.4256,6.4256h136.8134c3.5488,0,6.4255-2.8768,6.4255-6.4256v-149.6639c0-3.5489-2.8767-6.4257-6.4255-6.4257Zm-9.6603,110.5955c-9.6473,0-17.4959,7.8486-17.4965,17.496v.0027c-.0015.2311-.1887.418-.4199.4185h-75.2343c-3.5488,0-6.4256-2.8767-6.4256-6.4254v-23.8275c0-3.5489,2.8768-6.4257,6.4256-6.4257l75.2493.0041c.225.0089.4055.1912.4055.4182,0,9.6474,7.8486,17.4963,17.4959,17.4963.2317,0,.4184.1864.4206.4171v.0085c-.0022.2306-.1889.4172-.4206.4172Z"/>
  <path class="cls-2" d="m2041.5316,546.1453h-136.8135c-3.5488,0-6.4257,2.877-6.4257,6.4257v21.1512c0,3.5487,2.8769,6.4255,6.4257,6.4255h102.8111c3.5489,0,6.4255,2.877,6.4255,6.4257v10.9781c0,3.5487-2.8766,6.4255-6.4255,6.4255h-102.8111c-3.5488,0-6.4257,2.877-6.4257,6.4257v91.8323c0,3.5487,2.8769,6.4255,6.4257,6.4255h136.8135c3.5488,0,6.4254-2.8768,6.4254-6.4255v-149.664c0-3.5487-2.8766-6.4257-6.4254-6.4257Zm-9.6603,110.5955c-9.6474,0-17.496,7.8488-17.4966,17.496v.0028c-.0016.2311-.1887.418-.42.4185h-75.2342c-3.5488,0-6.4257-2.8768-6.4257-6.4255v-23.8275c0-3.5487,2.8769-6.4257,6.4257-6.4257l75.2495.0042c.2249.009.4053.1911.4053.4181,0,9.6475,7.8486,17.4964,17.496,17.4964.2316,0,.4184.1865.4206.417v.0086c-.0022.2305-.189.4171-.4206.4171Z"/>
  <path class="cls-2" d="m1488.9259,546.1462h-136.8135c-3.5488,0-6.4258,2.8769-6.4258,6.4257v149.6639c0,3.5488,2.877,6.4256,6.4258,6.4256h136.8135c3.5488,0,6.4255-2.8768,6.4255-6.4256v-149.6639c0-3.5488-2.8767-6.4257-6.4255-6.4257Zm-11.6615,82.3436c-24.8588,0-45.0836,20.2244-45.0848,45.0835v.0068c-.0038.5958-.4864,1.0772-1.0822,1.0786l-44.9826.0003c-3.5488,0-6.4258-2.8768-6.4258-6.4256v-81.6591c0-3.5489,2.877-6.4257,6.4258-6.4257l44.9826.0002c.5992.0014,1.0834.4867,1.0834,1.0854,0,24.8593,20.2248,45.0841,45.0836,45.0841.5963,0,1.0774.4805,1.0836,1.0747v.022c-.0062.5944-.4873,1.0748-1.0836,1.0748Z"/>
  <path class="cls-2" d="m2221.4492,546.1456h-102.8099c-3.5489,0-6.4258-2.8769-6.4258-6.4256v-51.4046c0-3.5488-2.8767-6.4256-6.4255-6.4256h-21.1511c-3.5488,0-6.4258,2.8768-6.4258,6.4256v213.9204c0,3.5488,2.877,6.4256,6.4258,6.4256h136.8123c3.5489,0,6.4256-2.8768,6.4256-6.4256v-149.6645c0-3.5488-2.8767-6.4257-6.4256-6.4257Zm-11.6614,82.3442c-24.8587,0-45.0837,20.2244-45.0848,45.0835v.0068c-.0039.5957-.4864,1.0772-1.0822,1.0786l-44.9815.0003c-3.5489,0-6.4258-2.8768-6.4258-6.4256v-81.6597c0-3.5488,2.8769-6.4258,6.4258-6.4258l44.9815.0009c.5991.0014,1.0833.4867,1.0833,1.0854,0,24.8593,20.225,45.084,45.0837,45.084.5963,0,1.0775.4806,1.0835,1.0748v.022c-.006.5944-.4872,1.0748-1.0835,1.0748Z"/>
</svg>